<?xml version="1.0" standalone="no"?>
<!DOCTYPE svg PUBLIC "-//W3C//DTD SVG 20010904//EN"
 "http://www.w3.org/TR/2001/REC-SVG-20010904/DTD/svg10.dtd">
<svg version="1.0" xmlns="http://www.w3.org/2000/svg"
 width="1730.000000pt" height="720.000000pt" viewBox="0 0 1730.000000 720.000000"
 preserveAspectRatio="xMidYMid meet">

<g transform="translate(0.000000,720.000000) scale(0.100000,-0.100000)"
fill="#000000" stroke="none">
<path d="M3641 6805 c9 -11 19 -27 22 -35 5 -13 6 -13 6 1 1 9 -9 24 -21 35
-23 19 -23 19 -7 -1z"/>
<path d="M4660 6780 c8 -5 22 -9 30 -9 10 0 8 3 -5 9 -27 12 -43 12 -25 0z"/>
<path d="M4730 6754 c0 -7 52 -25 57 -20 2 2 -10 8 -26 14 -17 6 -31 9 -31 6z"/>
<path d="M4161 6724 c0 -11 3 -14 6 -6 3 7 2 16 -1 19 -3 4 -6 -2 -5 -13z"/>
<path d="M4884 6695 c11 -8 26 -15 33 -15 22 0 14 8 -19 19 -30 10 -31 9 -14
-4z"/>
<path d="M3534 6575 c0 -60 1 -84 3 -52 2 32 2 81 0 110 -2 29 -3 3 -3 -58z"/>
<path d="M5055 6619 c55 -28 107 -57 116 -65 8 -8 19 -14 24 -14 12 0 332
-204 345 -220 3 -3 42 -34 87 -68 136 -103 445 -402 538 -521 28 -35 60 -75
73 -88 12 -13 22 -28 22 -32 0 -5 7 -14 15 -21 8 -7 34 -40 56 -74 23 -33 46
-62 51 -64 4 -2 8 -10 8 -18 0 -8 5 -14 11 -14 5 0 7 -4 4 -10 -3 -5 -3 -10 2
-10 4 0 24 -25 42 -55 19 -30 39 -55 43 -55 4 0 8 -5 8 -11 0 -6 12 -26 26
-45 15 -19 23 -34 20 -34 -8 0 16 -47 38 -75 43 -55 -48 115 -117 220 -201
301 -370 502 -602 716 -172 159 -264 234 -410 331 -169 114 -460 279 -489 278
-6 -1 34 -24 89 -51z"/>
<path d="M4422 6550 l1 -115 9 89 c6 56 5 98 -1 115 -7 19 -9 -4 -9 -89z"/>
<path d="M3381 6594 c0 -11 3 -14 6 -6 3 7 2 16 -1 19 -3 4 -6 -2 -5 -13z"/>
<path d="M2462 6510 c0 -14 2 -19 5 -12 2 6 2 18 0 25 -3 6 -5 1 -5 -13z"/>
<path d="M3523 6385 c0 -27 2 -38 4 -22 2 15 2 37 0 50 -2 12 -4 0 -4 -28z"/>
<path d="M4436 6400 c3 -14 11 -32 16 -40 6 -10 7 -7 2 10 -3 14 -11 32 -16
40 -6 10 -7 7 -2 -10z"/>
<path d="M3621 6334 c0 -11 3 -14 6 -6 3 7 2 16 -1 19 -3 4 -6 -2 -5 -13z"/>
<path d="M3381 6299 c-1 -8 6 -24 15 -35 15 -19 15 -19 6 1 -5 11 -12 27 -15
35 -5 13 -6 13 -6 -1z"/>
<path d="M2520 6266 c0 -2 7 -7 16 -10 8 -3 12 -2 9 4 -6 10 -25 14 -25 6z"/>
<path d="M3640 6220 c7 -12 18 -41 25 -64 8 -25 13 -33 14 -20 1 26 -24 90
-40 100 -7 4 -7 -1 1 -16z"/>
<path d="M3911 6210 c0 -8 6 -26 15 -40 l15 -25 -7 25 c-3 14 -10 32 -15 40
-7 13 -8 13 -8 0z"/>
<path d="M3459 6167 c18 -27 35 -46 38 -44 7 8 -13 40 -43 67 -26 24 -26 23 5
-23z"/>
<path d="M3940 6137 c0 -2 11 -17 25 -33 14 -16 25 -24 25 -19 -1 18 -50 69
-50 52z"/>
<path d="M4673 6060 c0 -30 2 -43 4 -27 2 15 2 39 0 55 -2 15 -4 2 -4 -28z"/>
<path d="M4372 6054 c-1 -26 4 -46 13 -54 16 -13 21 0 6 16 -5 5 -11 25 -14
44 -4 34 -4 34 -5 -6z"/>
<path d="M2280 5993 c0 -13 5 -23 10 -23 13 0 13 11 0 30 -8 12 -10 11 -10 -7z"/>
<path d="M4417 5979 c7 -7 15 -10 18 -7 3 3 -2 9 -12 12 -14 6 -15 5 -6 -5z"/>
<path d="M4504 5936 c11 -9 24 -16 30 -16 12 0 7 5 -24 19 -24 11 -24 11 -6
-3z"/>
<path d="M4315 5790 c3 -5 14 -10 23 -10 15 0 15 2 2 10 -20 13 -33 13 -25 0z"/>
<path d="M4390 5765 c0 -8 73 -36 78 -30 3 3 3 5 0 5 -3 0 -22 7 -42 15 -20 8
-36 13 -36 10z"/>
<path d="M4550 5689 c79 -43 120 -62 120 -54 0 6 -176 95 -187 95 -5 0 26 -19
67 -41z"/>
<path d="M4930 5652 c0 -5 7 -15 15 -22 8 -7 15 -8 15 -2 0 5 -7 15 -15 22 -8
7 -15 8 -15 2z"/>
<path d="M1435 5616 c17 -14 36 -26 44 -26 17 0 17 1 -34 29 l-40 23 30 -26z"/>
<path d="M4683 5623 c3 -5 34 -27 69 -48 80 -49 278 -203 278 -215 0 -6 5 -10
10 -10 14 0 244 -234 282 -287 17 -24 36 -43 41 -43 31 0 -258 301 -396 412
-129 103 -301 219 -284 191z"/>
<path d="M3946 5568 c16 -18 30 -35 32 -37 1 -2 4 -2 7 1 8 7 -44 68 -58 68
-6 0 2 -15 19 -32z"/>
<path d="M3342 5515 c0 -16 2 -22 5 -12 2 9 2 23 0 30 -3 6 -5 -1 -5 -18z"/>
<path d="M4041 5430 c-1 -8 10 -37 23 -65 13 -27 32 -76 42 -108 10 -32 20
-54 22 -48 2 6 -4 35 -14 63 -24 72 -72 176 -73 158z"/>
<path d="M1249 5399 c-5 -24 7 -77 15 -68 2 2 0 24 -3 49 -6 37 -8 41 -12 19z"/>
<path d="M3306 5320 c3 -52 9 -111 14 -130 12 -51 10 -20 -5 110 l-14 115 5
-95z"/>
<path d="M1061 5347 c-1 -30 6 -44 35 -75 33 -34 34 -34 10 -4 -14 19 -28 43
-31 55 -2 12 -6 31 -8 42 -3 11 -5 3 -6 -18z"/>
<path d="M1152 5224 c10 -10 20 -16 22 -13 3 3 -5 11 -17 18 -21 13 -21 12 -5
-5z"/>
<path d="M2935 5100 c-4 -7 -1 -16 6 -21 23 -14 32 -10 18 9 -7 9 -14 18 -15
20 -1 2 -5 -2 -9 -8z"/>
<path d="M6639 5005 c27 -52 48 -95 46 -95 -2 0 7 -23 21 -50 14 -28 27 -61
30 -73 4 -26 43 -107 44 -92 1 39 -163 405 -182 405 -5 0 14 -43 41 -95z"/>
<path d="M3906 5052 c-3 -6 26 -26 65 -46 87 -44 104 -47 29 -5 -30 17 -62 38
-72 46 -9 8 -18 10 -22 5z"/>
<path d="M2280 5046 c0 -2 8 -10 18 -17 15 -13 16 -12 3 4 -13 16 -21 21 -21
13z"/>
<path d="M6331 5046 c2 -2 15 -9 29 -15 24 -11 24 -11 6 3 -16 13 -49 24 -35
12z"/>
<path d="M2764 5031 c3 -4 10 -21 16 -36 6 -15 13 -26 15 -23 8 8 -16 68 -27
68 -5 0 -7 -4 -4 -9z"/>
<path d="M3330 5013 c0 -7 11 -42 25 -78 13 -37 24 -69 23 -73 -1 -4 10 -45
25 -92 14 -47 37 -125 51 -175 28 -102 34 -101 10 2 -42 184 -133 465 -134
416z"/>
<path d="M5423 4918 c34 -51 64 -95 68 -98 4 -3 15 -24 25 -47 10 -24 22 -43
26 -43 5 0 8 -7 8 -16 0 -8 11 -32 25 -52 14 -20 25 -43 25 -50 0 -7 10 -34
21 -60 12 -25 22 -51 23 -57 4 -27 50 -137 53 -128 6 16 -83 244 -133 344 -47
94 -180 299 -194 299 -5 0 19 -42 53 -92z"/>
<path d="M795 4970 c11 -39 54 -128 64 -135 6 -3 -6 29 -26 72 -38 84 -50 103
-38 63z"/>
<path d="M4060 4966 c0 -3 14 -12 30 -21 17 -9 30 -13 30 -11 0 3 -13 12 -30
21 -16 9 -30 13 -30 11z"/>
<path d="M2806 4939 c3 -15 12 -44 20 -65 14 -36 15 -36 10 -8 -3 18 -12 47
-20 65 -12 28 -14 29 -10 8z"/>
<path d="M2341 4934 c0 -11 3 -14 6 -6 3 7 2 16 -1 19 -3 4 -6 -2 -5 -13z"/>
<path d="M2101 4924 c0 -11 3 -14 6 -6 3 7 2 16 -1 19 -3 4 -6 -2 -5 -13z"/>
<path d="M2577 4921 c-4 -17 -3 -21 5 -13 5 5 8 16 6 23 -3 8 -7 3 -11 -10z"/>
<path d="M2978 4923 c5 -10 19 -40 32 -68 22 -48 115 -245 147 -313 9 -17 18
-30 20 -28 8 8 -190 426 -202 426 -3 0 -2 -8 3 -17z"/>
<path d="M4510 4892 c0 -4 11 -50 24 -102 13 -52 34 -153 47 -223 13 -71 25
-125 26 -120 5 15 -24 189 -51 308 -14 61 -26 118 -26 128 0 9 -4 17 -10 17
-5 0 -10 -3 -10 -8z"/>
<path d="M4935 4890 c3 -5 8 -10 11 -10 2 0 4 5 4 10 0 6 -5 10 -11 10 -5 0
-7 -4 -4 -10z"/>
<path d="M6092 4875 c0 -16 2 -22 5 -12 2 9 2 23 0 30 -3 6 -5 -1 -5 -18z"/>
<path d="M2006 4852 c-3 -5 6 -20 21 -33 l26 -24 -19 30 c-10 17 -19 31 -20
33 -1 2 -5 -1 -8 -6z"/>
<path d="M4850 4853 c0 -6 8 -17 18 -24 16 -13 16 -13 2 6 -8 11 -16 22 -17
24 -2 2 -3 0 -3 -6z"/>
<path d="M876 4795 c4 -16 10 -91 14 -165 l8 -135 -2 145 c-1 98 -6 151 -14
165 -12 18 -13 17 -6 -10z"/>
<path d="M4342 4790 c0 -19 2 -27 5 -17 2 9 2 25 0 35 -3 9 -5 1 -5 -18z"/>
<path d="M6597 4789 c4 -13 8 -18 11 -10 2 7 -1 18 -6 23 -8 8 -9 4 -5 -13z"/>
<path d="M4890 4796 c0 -2 8 -10 18 -17 15 -13 16 -12 3 4 -13 16 -21 21 -21
13z"/>
<path d="M592 4765 c0 -16 2 -22 5 -12 2 9 2 23 0 30 -3 6 -5 -1 -5 -18z"/>
<path d="M2087 4759 c12 -12 24 -21 27 -18 2 2 -8 13 -22 23 l-27 19 22 -24z"/>
<path d="M1252 4740 c0 -14 2 -19 5 -12 2 6 2 18 0 25 -3 6 -5 1 -5 -13z"/>
<path d="M4930 4756 c0 -2 7 -7 16 -10 8 -3 12 -2 9 4 -6 10 -25 14 -25 6z"/>
<path d="M2833 4700 c0 -30 2 -43 4 -27 2 15 2 39 0 55 -2 15 -4 2 -4 -28z"/>
<path d="M4333 4695 c0 -33 2 -45 4 -27 2 18 2 45 0 60 -2 15 -4 0 -4 -33z"/>
<path d="M6072 4720 c0 -19 2 -27 5 -17 2 9 2 25 0 35 -3 9 -5 1 -5 -18z"/>
<path d="M2542 4720 c0 -14 2 -19 5 -12 2 6 2 18 0 25 -3 6 -5 1 -5 -13z"/>
<path d="M1262 4670 c0 -14 2 -19 5 -12 2 6 2 18 0 25 -3 6 -5 1 -5 -13z"/>
<path d="M2528 4665 c-3 -14 -1 -25 3 -25 5 0 9 11 9 25 0 14 -2 25 -4 25 -2
0 -6 -11 -8 -25z"/>
<path d="M692 4660 c0 -14 2 -19 5 -12 2 6 2 18 0 25 -3 6 -5 1 -5 -13z"/>
<path d="M6788 4644 c-3 -5 5 -36 18 -69 17 -41 22 -49 18 -25 -10 52 -30 105
-36 94z"/>
<path d="M2817 4531 c-4 -57 -5 -106 -3 -108 6 -6 19 158 14 187 -2 14 -7 -22
-11 -79z"/>
<path d="M6061 4614 c0 -11 3 -14 6 -6 3 7 2 16 -1 19 -3 4 -6 -2 -5 -13z"/>
<path d="M6642 4585 c0 -16 2 -22 5 -12 2 9 2 23 0 30 -3 6 -5 -1 -5 -18z"/>
<path d="M6052 4560 c0 -14 2 -19 5 -12 2 6 2 18 0 25 -3 6 -5 1 -5 -13z"/>
<path d="M6651 4534 c0 -11 3 -14 6 -6 3 7 2 16 -1 19 -3 4 -6 -2 -5 -13z"/>
<path d="M6042 4510 c0 -14 2 -19 5 -12 2 6 2 18 0 25 -3 6 -5 1 -5 -13z"/>
<path d="M2112 4500 c0 -14 2 -19 5 -12 2 6 2 18 0 25 -3 6 -5 1 -5 -13z"/>
<path d="M6834 4467 c4 -27 14 -67 22 -90 9 -23 17 -55 20 -72 2 -16 13 -61
24 -100 31 -109 14 -9 -27 155 -37 152 -50 189 -39 107z"/>
<path d="M3471 4493 c1 -20 37 -146 38 -134 2 31 -22 141 -30 141 -5 0 -9 -3
-8 -7z"/>
<path d="M4283 4440 c0 -36 2 -50 4 -32 2 17 2 47 0 65 -2 17 -4 3 -4 -33z"/>
<path d="M6031 4464 c0 -11 3 -14 6 -6 3 7 2 16 -1 19 -3 4 -6 -2 -5 -13z"/>
<path d="M2492 4440 c0 -14 2 -19 5 -12 2 6 2 18 0 25 -3 6 -5 1 -5 -13z"/>
<path d="M5062 4430 c0 -14 2 -19 5 -12 2 6 2 18 0 25 -3 6 -5 1 -5 -13z"/>
<path d="M2140 4420 c0 -5 5 -10 11 -10 5 0 7 5 4 10 -3 6 -8 10 -11 10 -2 0
-4 -4 -4 -10z"/>
<path d="M4609 4415 c-3 -11 5 -67 17 -125 26 -126 30 -96 5 45 -9 55 -19 91
-22 80z"/>
<path d="M581 4404 c0 -11 3 -14 6 -6 3 7 2 16 -1 19 -3 4 -6 -2 -5 -13z"/>
<path d="M2477 4390 c-3 -11 -1 -20 4 -20 5 0 9 9 9 20 0 11 -2 20 -4 20 -2 0
-6 -9 -9 -20z"/>
<path d="M281 4344 c0 -11 3 -14 6 -6 3 7 2 16 -1 19 -3 4 -6 -2 -5 -13z"/>
<path d="M588 4320 c2 -16 6 -30 8 -30 2 0 4 14 4 30 0 17 -4 30 -8 30 -5 0
-7 -13 -4 -30z"/>
<path d="M5697 4337 c-3 -9 -3 -19 2 -21 22 -14 78 -355 83 -506 1 -41 2 -46
5 -20 11 84 -40 448 -75 539 -7 20 -10 21 -15 8z"/>
<path d="M3511 4324 c0 -11 3 -14 6 -6 3 7 2 16 -1 19 -3 4 -6 -2 -5 -13z"/>
<path d="M3280 4322 c0 -5 9 -20 19 -33 10 -14 26 -42 35 -63 9 -22 19 -37 22
-34 6 7 -51 124 -66 133 -5 3 -10 2 -10 -3z"/>
<path d="M5090 4315 c0 -5 5 -17 10 -25 5 -8 10 -10 10 -5 0 6 -5 17 -10 25
-5 8 -10 11 -10 5z"/>
<path d="M6091 4260 c0 -36 3 -71 7 -78 5 -7 7 16 5 50 -6 91 -11 103 -12 28z"/>
<path d="M2781 4284 c0 -11 3 -14 6 -6 3 7 2 16 -1 19 -3 4 -6 -2 -5 -13z"/>
<path d="M3522 4265 c0 -22 4 -53 8 -70 7 -28 8 -28 8 10 0 22 -4 54 -8 70 -7
28 -8 28 -8 -10z"/>
<path d="M4272 4280 c0 -14 2 -19 5 -12 2 6 2 18 0 25 -3 6 -5 1 -5 -13z"/>
<path d="M6581 4274 c0 -11 3 -14 6 -6 3 7 2 16 -1 19 -3 4 -6 -2 -5 -13z"/>
<path d="M258 4257 c-3 -19 -2 -25 4 -19 6 6 8 18 6 28 -3 14 -5 12 -10 -9z"/>
<path d="M2462 4255 c0 -16 2 -22 5 -12 2 9 2 23 0 30 -3 6 -5 -1 -5 -18z"/>
<path d="M711 4244 c0 -11 3 -14 6 -6 3 7 2 16 -1 19 -3 4 -6 -2 -5 -13z"/>
<path d="M2772 4235 c0 -16 2 -22 5 -12 2 9 2 23 0 30 -3 6 -5 -1 -5 -18z"/>
<path d="M5922 4240 c0 -14 2 -19 5 -12 2 6 2 18 0 25 -3 6 -5 1 -5 -13z"/>
<path d="M1692 4180 c0 -19 2 -27 5 -17 2 9 2 25 0 35 -3 9 -5 1 -5 -18z"/>
<path d="M2452 4185 c0 -16 2 -22 5 -12 2 9 2 23 0 30 -3 6 -5 -1 -5 -18z"/>
<path d="M5129 4162 c5 -34 6 -35 9 -8 2 16 0 32 -5 37 -5 5 -7 -7 -4 -29z"/>
<path d="M5930 4185 c0 -8 4 -15 10 -15 5 0 7 7 4 15 -4 8 -8 15 -10 15 -2 0
-4 -7 -4 -15z"/>
<path d="M6590 4180 c0 -5 5 -10 11 -10 5 0 7 5 4 10 -3 6 -8 10 -11 10 -2 0
-4 -4 -4 -10z"/>
<path d="M4652 4150 c0 -19 2 -27 5 -17 2 9 2 25 0 35 -3 9 -5 1 -5 -18z"/>
<path d="M241 4134 c0 -11 3 -14 6 -6 3 7 2 16 -1 19 -3 4 -6 -2 -5 -13z"/>
<path d="M1421 4134 c0 -11 3 -14 6 -6 3 7 2 16 -1 19 -3 4 -6 -2 -5 -13z"/>
<path d="M2442 4120 c0 -19 2 -27 5 -17 2 9 2 25 0 35 -3 9 -5 1 -5 -18z"/>
<path d="M6922 4105 c0 -16 2 -22 5 -12 2 9 2 23 0 30 -3 6 -5 -1 -5 -18z"/>
<path d="M1940 4106 c0 -2 7 -9 15 -16 13 -11 14 -10 9 4 -5 14 -24 23 -24 12z"/>
<path d="M4659 4090 c-3 -14 5 -81 17 -150 27 -153 29 -131 5 45 -9 72 -19
119 -22 105z"/>
<path d="M1412 4075 c0 -16 2 -22 5 -12 2 9 2 23 0 30 -3 6 -5 -1 -5 -18z"/>
<path d="M3170 4093 c0 -6 8 -17 18 -24 16 -13 16 -13 2 6 -8 11 -16 22 -17
24 -2 2 -3 0 -3 -6z"/>
<path d="M232 4065 c0 -16 2 -22 5 -12 2 9 2 23 0 30 -3 6 -5 -1 -5 -18z"/>
<path d="M4213 4040 c0 -30 2 -43 4 -27 2 15 2 39 0 55 -2 15 -4 2 -4 -28z"/>
<path d="M2431 4064 c0 -11 3 -14 6 -6 3 7 2 16 -1 19 -3 4 -6 -2 -5 -13z"/>
<path d="M2751 4064 c0 -11 3 -14 6 -6 3 7 2 16 -1 19 -3 4 -6 -2 -5 -13z"/>
<path d="M1692 4050 c0 -14 2 -19 5 -12 2 6 2 18 0 25 -3 6 -5 1 -5 -13z"/>
<path d="M2006 4061 c-3 -4 7 -14 22 -20 27 -13 27 -13 8 8 -22 24 -23 24 -30
12z"/>
<path d="M3367 4049 c4 -13 8 -18 11 -10 2 7 -1 18 -6 23 -8 8 -9 4 -5 -13z"/>
<path d="M6929 4056 c-3 -3 -1 -38 4 -78 5 -40 12 -116 16 -168 8 -92 8 -93 9
-25 1 79 -20 279 -29 271z"/>
<path d="M1396 3981 c-4 -35 -5 -65 -2 -68 6 -7 19 103 14 119 -3 7 -8 -16
-12 -51z"/>
<path d="M217 3978 c-4 -29 -6 -91 -5 -138 1 -74 2 -67 9 50 8 142 6 176 -4
88z"/>
<path d="M1701 3973 c-1 -55 6 -83 21 -83 5 0 6 6 1 13 -4 6 -11 37 -14 67
l-6 55 -2 -52z"/>
<path d="M2742 4000 c0 -14 2 -19 5 -12 2 6 2 18 0 25 -3 6 -5 1 -5 -13z"/>
<path d="M3378 4015 c-3 -5 5 -39 18 -75 12 -36 23 -56 23 -45 0 30 -34 131
-41 120z"/>
<path d="M6327 3969 c4 -13 8 -18 11 -10 2 7 -1 18 -6 23 -8 8 -9 4 -5 -13z"/>
<path d="M1899 3942 c11 -21 59 -59 65 -51 1 2 -15 20 -37 39 -31 27 -37 30
-28 12z"/>
<path d="M2729 3929 c-1 -19 -4 -80 -8 -137 -3 -56 -3 -102 0 -102 7 0 21 262
14 269 -3 2 -5 -11 -6 -30z"/>
<path d="M2412 3895 c0 -16 2 -22 5 -12 2 9 2 23 0 30 -3 6 -5 -1 -5 -18z"/>
<path d="M1393 3840 c0 -36 2 -50 4 -32 2 17 2 47 0 65 -2 17 -4 3 -4 -33z"/>
<path d="M1156 3865 c4 -8 8 -15 10 -15 2 0 4 7 4 15 0 8 -4 15 -10 15 -5 0
-7 -7 -4 -15z"/>
<path d="M3422 3845 c0 -16 2 -22 5 -12 2 9 2 23 0 30 -3 6 -5 -1 -5 -18z"/>
<path d="M5412 3850 c0 -14 2 -19 5 -12 2 6 2 18 0 25 -3 6 -5 1 -5 -13z"/>
<path d="M5032 3835 c0 -16 2 -22 5 -12 2 9 2 23 0 30 -3 6 -5 -1 -5 -18z"/>
<path d="M2402 3830 c0 -14 2 -19 5 -12 2 6 2 18 0 25 -3 6 -5 1 -5 -13z"/>
<path d="M4702 3790 c0 -14 2 -19 5 -12 2 6 2 18 0 25 -3 6 -5 1 -5 -13z"/>
<path d="M3428 3793 c-2 -5 -1 -26 3 -48 l6 -40 2 48 c1 44 -3 57 -11 40z"/>
<path d="M2388 3750 c-2 -22 0 -40 4 -40 5 0 8 18 8 40 0 22 -2 40 -4 40 -2 0
-6 -18 -8 -40z"/>
<path d="M4202 3663 c-1 -72 1 -134 6 -136 4 -3 6 43 4 101 -4 165 -9 180 -10
35z"/>
<path d="M4704 3617 c-1 -82 2 -129 6 -112 10 40 12 243 2 249 -4 2 -8 -59 -8
-137z"/>
<path d="M1582 3604 c-2 -197 6 -304 25 -304 11 0 11 4 2 22 -7 12 -14 104
-19 227 l-7 206 -1 -151z"/>
<path d="M5980 3746 c0 -11 30 -66 36 -66 2 0 -3 15 -12 33 -19 36 -24 44 -24
33z"/>
<path d="M3191 3714 c0 -11 3 -14 6 -6 3 7 2 16 -1 19 -3 4 -6 -2 -5 -13z"/>
<path d="M3758 3701 c5 -14 20 -32 33 -40 l24 -15 -25 29 c-14 17 -28 35 -33
40 -4 6 -4 -1 1 -14z"/>
<path d="M6118 3705 c6 -11 30 -38 53 -60 43 -39 43 -39 -6 15 -27 30 -51 57
-53 60 -3 3 0 -4 6 -15z"/>
<path d="M1791 3683 c-1 -23 4 -33 14 -33 12 0 13 5 7 18 -5 9 -12 24 -15 32
-3 8 -6 0 -6 -17z"/>
<path d="M3215 3670 c10 -11 20 -20 23 -20 3 0 -3 9 -13 20 -10 11 -20 20 -23
20 -3 0 3 -9 13 -20z"/>
<path d="M1393 3625 c0 -33 2 -45 4 -27 2 18 2 45 0 60 -2 15 -4 0 -4 -33z"/>
<path d="M6963 3630 c0 -30 2 -43 4 -27 2 15 2 39 0 55 -2 15 -4 2 -4 -28z"/>
<path d="M5783 3615 c0 -33 2 -45 4 -27 2 18 2 45 0 60 -2 15 -4 0 -4 -33z"/>
<path d="M6020 3666 c0 -2 8 -10 18 -17 15 -13 16 -12 3 4 -13 16 -21 21 -21
13z"/>
<path d="M1017 3639 c4 -13 8 -18 11 -10 2 7 -1 18 -6 23 -8 8 -9 4 -5 -13z"/>
<path d="M2382 3625 c0 -16 2 -22 5 -12 2 9 2 23 0 30 -3 6 -5 -1 -5 -18z"/>
<path d="M2712 3620 c0 -14 2 -19 5 -12 2 6 2 18 0 25 -3 6 -5 1 -5 -13z"/>
<path d="M5011 3614 c0 -11 3 -14 6 -6 3 7 2 16 -1 19 -3 4 -6 -2 -5 -13z"/>
<path d="M212 3464 c-2 -131 2 -185 23 -299 13 -76 23 -140 21 -142 -2 -2 7
-43 20 -91 13 -48 27 -106 30 -130 3 -24 14 -66 24 -93 11 -27 22 -59 24 -71
7 -34 60 -178 79 -215 10 -18 17 -39 17 -48 0 -16 37 -95 45 -95 5 0 -4 25
-73 205 -119 312 -186 638 -201 970 l-8 170 -1 -161z"/>
<path d="M1817 3604 c-6 -6 55 -74 66 -74 3 0 31 -16 63 -35 32 -19 63 -35 68
-35 6 0 -14 14 -44 31 -30 16 -76 50 -101 75 -25 24 -48 41 -52 38z"/>
<path d="M412 3560 c0 -19 2 -27 5 -17 2 9 2 25 0 35 -3 9 -5 1 -5 -18z"/>
<path d="M1395 3505 c8 -82 26 -177 37 -195 7 -11 8 -8 4 10 -3 14 -10 66 -17
115 -13 106 -32 161 -24 70z"/>
<path d="M2372 3540 c0 -14 2 -19 5 -12 2 6 2 18 0 25 -3 6 -5 1 -5 -13z"/>
<path d="M2702 3540 c0 -14 2 -19 5 -12 2 6 2 18 0 25 -3 6 -5 1 -5 -13z"/>
<path d="M1221 3524 c0 -11 3 -14 6 -6 3 7 2 16 -1 19 -3 4 -6 -2 -5 -13z"/>
<path d="M5002 3510 c0 -19 2 -27 5 -17 2 9 2 25 0 35 -3 9 -5 1 -5 -18z"/>
<path d="M5772 3510 c0 -14 2 -19 5 -12 2 6 2 18 0 25 -3 6 -5 1 -5 -13z"/>
<path d="M6953 3460 c0 -41 2 -58 4 -37 2 20 2 54 0 75 -2 20 -4 3 -4 -38z"/>
<path d="M2362 3470 c0 -19 2 -27 5 -17 2 9 2 25 0 35 -3 9 -5 1 -5 -18z"/>
<path d="M402 3470 c0 -14 2 -19 5 -12 2 6 2 18 0 25 -3 6 -5 1 -5 -13z"/>
<path d="M2693 3440 c0 -30 2 -43 4 -27 2 15 2 39 0 55 -2 15 -4 2 -4 -28z"/>
<path d="M1112 3450 c0 -19 2 -27 5 -17 2 9 2 25 0 35 -3 9 -5 1 -5 -18z"/>
<path d="M5762 3450 c0 -14 2 -19 5 -12 2 6 2 18 0 25 -3 6 -5 1 -5 -13z"/>
<path d="M4703 3390 c0 -41 2 -58 4 -37 2 20 2 54 0 75 -2 20 -4 3 -4 -38z"/>
<path d="M4992 3415 c0 -16 2 -22 5 -12 2 9 2 23 0 30 -3 6 -5 -1 -5 -18z"/>
<path d="M2345 3355 c-4 -42 -5 -78 -3 -81 3 -2 8 30 12 72 4 42 5 78 2 81 -2
2 -7 -30 -11 -72z"/>
<path d="M4042 3354 c-2 -82 22 -170 50 -185 17 -9 17 -8 -1 23 -19 32 -38
115 -44 193 -2 22 -4 8 -5 -31z"/>
<path d="M5752 3400 c0 -14 2 -19 5 -12 2 6 2 18 0 25 -3 6 -5 1 -5 -13z"/>
<path d="M3141 3335 l1 -60 10 48 c8 35 7 52 -1 60 -8 8 -11 -5 -10 -48z"/>
<path d="M2683 3315 c0 -33 2 -45 4 -27 2 18 2 45 0 60 -2 15 -4 0 -4 -33z"/>
<path d="M5741 3354 c0 -11 3 -14 6 -6 3 7 2 16 -1 19 -3 4 -6 -2 -5 -13z"/>
<path d="M6943 3325 c0 -22 2 -30 4 -17 2 12 2 30 0 40 -3 9 -5 -1 -4 -23z"/>
<path d="M1121 3334 c0 -11 3 -14 6 -6 3 7 2 16 -1 19 -3 4 -6 -2 -5 -13z"/>
<path d="M1862 3334 c10 -10 20 -16 22 -13 3 3 -5 11 -17 18 -21 13 -21 12 -5
-5z"/>
<path d="M4987 3330 c-3 -12 0 -20 8 -20 8 0 11 8 8 20 -3 11 -7 20 -8 20 -1
0 -5 -9 -8 -20z"/>
<path d="M3320 3295 c0 -25 15 -49 27 -44 6 2 2 18 -8 34 -16 25 -19 26 -19
10z"/>
<path d="M1438 3270 c-2 -14 9 -61 24 -104 16 -43 26 -81 24 -83 -2 -3 7 -30
21 -61 14 -31 27 -65 29 -75 6 -32 156 -324 172 -337 4 -3 14 -17 22 -32 47
-82 160 -219 279 -338 145 -144 253 -233 384 -317 93 -59 280 -163 293 -163 5
0 -27 20 -71 43 -309 167 -599 411 -792 668 -173 230 -288 467 -358 734 -15
59 -24 81 -27 65z"/>
<path d="M3760 3277 c0 -14 25 -47 36 -47 4 0 -18 38 -33 59 -2 2 -3 -3 -3
-12z"/>
<path d="M4701 3274 c0 -11 3 -14 6 -6 3 7 2 16 -1 19 -3 4 -6 -2 -5 -13z"/>
<path d="M6932 3250 c0 -19 2 -27 5 -17 2 9 2 25 0 35 -3 9 -5 1 -5 -18z"/>
<path d="M1132 3240 c0 -19 2 -27 5 -17 2 9 2 25 0 35 -3 9 -5 1 -5 -18z"/>
<path d="M3381 3194 c0 -11 3 -14 6 -6 3 7 2 16 -1 19 -3 4 -6 -2 -5 -13z"/>
<path d="M6549 3172 c5 -34 6 -35 9 -8 2 16 0 32 -5 37 -5 5 -7 -7 -4 -29z"/>
<path d="M2511 3153 c7 -12 15 -20 18 -17 3 2 -3 12 -13 22 -17 16 -18 16 -5
-5z"/>
<path d="M2669 3112 c3 -48 5 -53 13 -33 5 14 6 37 3 53 -11 49 -20 38 -16
-20z"/>
<path d="M3383 3115 c0 -27 2 -38 4 -22 2 15 2 37 0 50 -2 12 -4 0 -4 -28z"/>
<path d="M4184 2699 c0 -252 3 -456 8 -453 10 6 11 901 1 907 -5 3 -8 -201 -9
-454z"/>
<path d="M4643 3100 c0 -30 2 -43 4 -27 2 15 2 39 0 55 -2 15 -4 2 -4 -28z"/>
<path d="M400 3125 c0 -8 4 -15 10 -15 5 0 7 7 4 15 -4 8 -8 15 -10 15 -2 0
-4 -7 -4 -15z"/>
<path d="M2281 3124 c0 -11 3 -14 6 -6 3 7 2 16 -1 19 -3 4 -6 -2 -5 -13z"/>
<path d="M1140 3115 c0 -8 4 -15 10 -15 5 0 7 7 4 15 -4 8 -8 15 -10 15 -2 0
-4 -7 -4 -15z"/>
<path d="M5410 3105 c13 -14 26 -25 28 -25 3 0 -5 11 -18 25 -13 14 -26 25
-28 25 -3 0 5 -11 18 -25z"/>
<path d="M630 3105 c0 -8 4 -15 10 -15 5 0 7 7 4 15 -4 8 -8 15 -10 15 -2 0
-4 -7 -4 -15z"/>
<path d="M4782 3081 c2 -14 9 -26 16 -29 17 -5 15 10 -3 34 -15 18 -15 18 -13
-5z"/>
<path d="M1996 3068 c10 -14 21 -24 23 -22 3 3 -6 15 -18 27 l-24 22 19 -27z"/>
<path d="M2370 3071 c0 -6 5 -13 10 -16 6 -3 10 1 10 9 0 9 -4 16 -10 16 -5 0
-10 -4 -10 -9z"/>
<path d="M5270 3018 c0 -14 39 -68 40 -55 0 11 -29 67 -35 67 -3 0 -5 -6 -5
-12z"/>
<path d="M2267 2990 c3 -10 17 -27 32 -36 l26 -17 -22 25 c-13 13 -23 30 -23
36 0 7 -4 12 -9 12 -5 0 -7 -9 -4 -20z"/>
<path d="M1741 2967 c-1 -46 19 -95 49 -122 20 -17 20 -15 -4 17 -18 24 -31
57 -36 90 -7 47 -8 49 -9 15z"/>
<path d="M6033 2945 c0 -33 2 -45 4 -27 2 18 2 45 0 60 -2 15 -4 0 -4 -33z"/>
<path d="M6230 2931 c13 -19 27 -50 32 -70 7 -34 7 -33 3 8 -2 32 -11 51 -31
70 l-27 26 23 -34z"/>
<path d="M1877 2936 c-4 -11 -3 -24 3 -30 14 -14 18 -5 10 24 -5 23 -7 23 -13
6z"/>
<path d="M4752 2910 c0 -14 2 -19 5 -12 2 6 2 18 0 25 -3 6 -5 1 -5 -13z"/>
<path d="M5179 2912 c6 -12 16 -24 22 -28 8 -4 8 -1 0 14 -6 12 -16 24 -22 28
-8 4 -8 1 0 -14z"/>
<path d="M5891 2914 c0 -11 3 -14 6 -6 3 7 2 16 -1 19 -3 4 -6 -2 -5 -13z"/>
<path d="M2311 2848 c-1 -31 3 -59 7 -62 5 -3 7 18 5 47 -6 75 -11 81 -12 15z"/>
<path d="M6493 2790 c0 -25 2 -35 4 -22 2 12 2 32 0 45 -2 12 -4 2 -4 -23z"/>
<path d="M3750 2816 c0 -2 8 -10 18 -17 15 -13 16 -12 3 4 -13 16 -21 21 -21
13z"/>
<path d="M732 2725 c0 -16 2 -22 5 -12 2 9 2 23 0 30 -3 6 -5 -1 -5 -18z"/>
<path d="M2741 2734 c0 -11 3 -14 6 -6 3 7 2 16 -1 19 -3 4 -6 -2 -5 -13z"/>
<path d="M3374 2625 c0 -66 1 -92 3 -57 2 34 2 88 0 120 -2 31 -3 3 -3 -63z"/>
<path d="M6012 2715 c0 -16 2 -22 5 -12 2 9 2 23 0 30 -3 6 -5 -1 -5 -18z"/>
<path d="M2733 2660 c0 -25 2 -35 4 -22 2 12 2 32 0 45 -2 12 -4 2 -4 -23z"/>
<path d="M6002 2630 c0 -19 2 -27 5 -17 2 9 2 25 0 35 -3 9 -5 1 -5 -18z"/>
<path d="M2211 2623 c9 -28 49 -76 49 -60 0 6 -45 76 -56 86 -2 2 1 -9 7 -26z"/>
<path d="M691 2595 c0 -11 4 -27 9 -35 9 -13 10 -13 9 0 0 8 -4 24 -9 35 l-9
20 0 -20z"/>
<path d="M2724 2485 c0 -71 1 -99 3 -62 2 37 2 96 0 130 -2 34 -3 4 -3 -68z"/>
<path d="M2032 2550 c0 -19 2 -27 5 -17 2 9 2 25 0 35 -3 9 -5 1 -5 -18z"/>
<path d="M712 2450 c0 -14 2 -19 5 -12 2 6 2 18 0 25 -3 6 -5 1 -5 -13z"/>
<path d="M2060 2457 c0 -2 15 -16 33 -33 l32 -29 -29 33 c-28 30 -36 37 -36
29z"/>
<path d="M4800 2431 c0 -6 4 -13 10 -16 6 -3 7 1 4 9 -7 18 -14 21 -14 7z"/>
<path d="M6050 2434 c0 -6 7 -19 16 -30 14 -18 14 -18 3 6 -14 31 -19 36 -19
24z"/>
<path d="M5880 2415 c0 -8 4 -15 10 -15 5 0 7 7 4 15 -4 8 -8 15 -10 15 -2 0
-4 -7 -4 -15z"/>
<path d="M3364 2265 c0 -77 2 -107 3 -67 2 40 2 103 0 140 -2 37 -3 4 -3 -73z"/>
<path d="M712 2335 c0 -16 2 -22 5 -12 2 9 2 23 0 30 -3 6 -5 -1 -5 -18z"/>
<path d="M2713 2270 c0 -30 2 -43 4 -27 2 15 2 39 0 55 -2 15 -4 2 -4 -28z"/>
<path d="M497 2263 c-4 -5 5 -26 18 -46 14 -20 25 -41 25 -47 0 -6 11 -28 25
-50 14 -22 23 -40 19 -40 -3 0 3 -15 14 -32 11 -18 35 -62 54 -98 19 -36 46
-83 60 -105 55 -88 62 -100 63 -105 0 -6 143 -199 164 -222 9 -10 25 -28 37
-40 11 -13 57 -68 101 -123 89 -111 253 -273 371 -366 42 -34 79 -65 80 -70 2
-5 10 -9 18 -9 8 0 14 -3 14 -7 0 -5 30 -28 68 -52 37 -25 76 -52 87 -61 24
-20 125 -78 110 -63 -5 5 -62 45 -125 88 -226 152 -444 347 -609 544 -257 307
-334 420 -485 711 -57 111 -106 198 -109 193z"/>
<path d="M713 2205 c0 -22 2 -30 4 -17 2 12 2 30 0 40 -3 9 -5 -1 -4 -23z"/>
<path d="M720 2127 c0 -20 4 -37 10 -37 5 0 7 14 3 33 -8 45 -13 47 -13 4z"/>
<path d="M2690 2122 c0 -27 37 -65 102 -104 77 -47 86 -42 12 7 -43 28 -80 62
-92 84 -19 31 -22 33 -22 13z"/>
<path d="M1440 2095 c0 -5 5 -17 10 -25 5 -8 10 -10 10 -5 0 6 -5 17 -10 25
-5 8 -10 11 -10 5z"/>
<path d="M3353 2040 c0 -25 2 -35 4 -22 2 12 2 32 0 45 -2 12 -4 2 -4 -23z"/>
<path d="M5260 2016 c10 -21 29 -46 42 -54 l23 -16 -23 29 c-68 89 -64 85 -42
41z"/>
<path d="M5627 2003 c12 -10 31 -29 43 -43 12 -14 18 -18 14 -10 -12 24 -37
51 -59 62 -18 8 -18 7 2 -9z"/>
<path d="M2928 1953 c7 -3 16 -2 19 1 4 3 -2 6 -13 5 -11 0 -14 -3 -6 -6z"/>
<path d="M5701 1904 c-1 -15 30 -106 35 -101 2 2 -5 28 -15 58 -11 30 -20 49
-20 43z"/>
<path d="M5741 1764 c0 -11 3 -14 6 -6 3 7 2 16 -1 19 -3 4 -6 -2 -5 -13z"/>
<path d="M2740 1735 c25 -13 52 -24 60 -24 8 -1 -9 10 -38 24 -68 32 -81 32
-22 0z"/>
<path d="M1231 1638 c0 -65 2 -118 7 -118 4 0 6 42 4 92 -4 144 -9 155 -11 26z"/>
<path d="M5571 1734 c0 -11 3 -14 6 -6 3 7 2 16 -1 19 -3 4 -6 -2 -5 -13z"/>
<path d="M5751 1724 c0 -11 3 -14 6 -6 3 7 2 16 -1 19 -3 4 -6 -2 -5 -13z"/>
<path d="M1990 1707 c0 -16 46 -54 55 -45 3 2 -9 17 -25 33 -23 22 -30 25 -30
12z"/>
<path d="M5564 1615 c0 -49 1 -71 3 -48 2 23 2 64 0 90 -2 26 -3 8 -3 -42z"/>
<path d="M2870 1680 c8 -5 20 -10 25 -10 6 0 3 5 -5 10 -8 5 -19 10 -25 10 -5
0 -3 -5 5 -10z"/>
<path d="M4611 1524 c0 -11 3 -14 6 -6 3 7 2 16 -1 19 -3 4 -6 -2 -5 -13z"/>
<path d="M5792 1515 c0 -16 2 -22 5 -12 2 9 2 23 0 30 -3 6 -5 -1 -5 -18z"/>
<path d="M4441 1499 c-1 -10 21 -50 57 -101 18 -26 36 -57 42 -70 5 -14 9 -17
9 -8 1 9 -18 46 -41 82 -24 36 -48 74 -55 84 -6 11 -12 16 -12 13z"/>
<path d="M4707 1469 c4 -13 8 -18 11 -10 2 7 -1 18 -6 23 -8 8 -9 4 -5 -13z"/>
<path d="M5031 1474 c0 -11 3 -14 6 -6 3 7 2 16 -1 19 -3 4 -6 -2 -5 -13z"/>
<path d="M5681 1464 c0 -11 3 -14 6 -6 3 7 2 16 -1 19 -3 4 -6 -2 -5 -13z"/>
<path d="M3238 1354 c-2 -53 0 -101 4 -108 4 -6 8 37 8 97 0 59 -2 107 -4 107
-3 0 -6 -43 -8 -96z"/>
<path d="M1832 1415 c0 -16 2 -22 5 -12 2 9 2 23 0 30 -3 6 -5 -1 -5 -18z"/>
<path d="M4336 1370 c4 -14 11 -54 15 -90 l8 -65 -3 71 c-2 39 -8 79 -15 90
-11 17 -11 16 -5 -6z"/>
<path d="M5143 1340 c0 -30 2 -43 4 -27 2 15 2 39 0 55 -2 15 -4 2 -4 -28z"/>
<path d="M2291 1364 c0 -11 3 -14 6 -6 3 7 2 16 -1 19 -3 4 -6 -2 -5 -13z"/>
<path d="M5698 1355 c2 -14 8 -27 12 -30 4 -2 5 7 2 20 -2 14 -8 27 -12 30 -4
2 -5 -7 -2 -20z"/>
<path d="M4894 1301 c1 -45 5 -66 15 -69 10 -3 11 0 5 9 -5 8 -12 39 -15 69
l-7 55 2 -64z"/>
<path d="M3815 1305 l30 -40 5 -205 6 -205 2 193 c2 207 -3 239 -49 277 -20
17 -19 13 6 -20z"/>
<path d="M2531 1304 c0 -11 3 -14 6 -6 3 7 2 16 -1 19 -3 4 -6 -2 -5 -13z"/>
<path d="M2807 1303 c-3 -5 -1 -17 4 -28 7 -17 8 -17 8 8 1 27 -4 34 -12 20z"/>
<path d="M5715 1275 c7 -31 12 -41 19 -34 2 2 -3 18 -11 34 l-14 30 6 -30z"/>
<path d="M4534 1279 c-3 -6 0 -18 9 -26 13 -13 14 -12 10 11 -6 29 -9 31 -19
15z"/>
<path d="M5151 1258 c-1 -16 4 -28 9 -28 12 0 12 8 0 35 -8 18 -9 17 -9 -7z"/>
<path d="M2597 1190 c12 -14 29 -38 37 -55 11 -20 16 -24 16 -12 0 10 -17 35
-37 55 -21 21 -28 26 -16 12z"/>
<path d="M4683 1135 c0 -38 2 -53 4 -32 2 20 2 52 0 70 -2 17 -4 1 -4 -38z"/>
<path d="M2814 1075 c0 -60 1 -84 3 -52 2 32 2 81 0 110 -2 29 -3 3 -3 -58z"/>
<path d="M3626 1035 c8 -37 14 -45 14 -19 0 10 -5 26 -10 34 -8 11 -9 7 -4
-15z"/>
<path d="M3641 974 c0 -11 3 -14 6 -6 3 7 2 16 -1 19 -3 4 -6 -2 -5 -13z"/>
<path d="M2660 966 c0 -11 30 -66 36 -66 2 0 -3 15 -12 33 -19 36 -24 44 -24
33z"/>
<path d="M3452 925 c0 -16 2 -22 5 -12 2 9 2 23 0 30 -3 6 -5 -1 -5 -18z"/>
<path d="M4380 926 c0 -2 8 -10 18 -17 15 -13 16 -12 3 4 -13 16 -21 21 -21
13z"/>
<path d="M3443 830 c0 -30 2 -43 4 -27 2 15 2 39 0 55 -2 15 -4 2 -4 -28z"/>
<path d="M3652 840 c0 -14 2 -19 5 -12 2 6 2 18 0 25 -3 6 -5 1 -5 -13z"/>
<path d="M4310 787 c0 -3 12 -12 26 -22 15 -9 23 -12 20 -6 -7 11 -46 35 -46
28z"/>
<path d="M3428 682 c-2 -43 0 -93 3 -112 4 -20 7 14 8 78 1 128 -6 151 -11 34z"/>
<path d="M4193 700 c0 -36 2 -50 4 -32 2 17 2 47 0 65 -2 17 -4 3 -4 -33z"/>
<path d="M1844 712 c4 -7 26 -22 49 -33 49 -25 39 -12 -17 21 -22 13 -36 18
-32 12z"/>
<path d="M1940 657 c0 -7 132 -79 136 -74 2 2 -28 20 -66 41 -39 20 -70 35
-70 33z"/>
<path d="M2530 624 c0 -21 8 -38 27 -55 15 -13 21 -16 14 -7 -7 10 -19 35 -27
55 l-13 38 -1 -31z"/>
<path d="M3236 628 c1 -13 3 -83 3 -155 1 -115 3 -133 17 -133 12 0 14 5 8 18
-5 9 -10 79 -12 155 -2 75 -7 137 -11 137 -4 0 -7 -10 -5 -22z"/>
<path d="M3843 575 c0 -27 2 -38 4 -22 2 15 2 37 0 50 -2 12 -4 0 -4 -28z"/>
<path d="M2785 586 c10 -14 19 -26 22 -26 7 0 -17 39 -28 46 -6 3 -3 -5 6 -20z"/>
<path d="M4185 575 c8 -45 12 -55 25 -55 9 0 -11 75 -24 87 -5 4 -5 -10 -1
-32z"/>
<path d="M2144 545 c22 -17 40 -20 32 -6 -3 5 -16 11 -28 14 -22 6 -22 5 -4
-8z"/>
<path d="M4430 530 c33 -26 52 -25 21 0 -13 11 -28 20 -35 20 -6 0 0 -9 14
-20z"/>
<path d="M2234 506 c11 -9 24 -16 30 -16 12 0 7 5 -24 19 -24 11 -24 11 -6 -3z"/>
<path d="M3661 413 c-1 -40 3 -73 7 -73 5 0 7 28 4 63 -5 89 -10 94 -11 10z"/>
</g>
</svg>
